PathFileType	4	(X/Y/Z)	RBDS001\RBDS001runT25.trc																																																																																																	
DataRate	CameraRate	NumFrames	NumMarkers	Units	OrigDataRate	OrigDataStartFrame	OrigNumFrames																																																																																													
150	150	8	33	mm	150	1687	4500																																																																																													
Frame#	Time	L.ASIS			L.Heel.Bottom			L.Heel.Lateral			L.Heel.Top			L.Iliac.Crest			L.MT1			L.MT5			L.PSIS			L.Shank.Bottom.Lateral			L.Shank.Bottom.Medial			L.Shank.Top.Lateral			L.Shank.Top.Medial			L.Thigh.Bottom.Lateral			L.Thigh.Bottom.Medial			L.Thigh.Top.Lateral			L.Thigh.Top.Medial			R.ASIS			R.ASY			R.Heel.Bottom			R.Heel.Lateral			R.Heel.Top			R.Iliac.Crest			R.MT5			R.MT1			R.PSIS			R.Shank.Bottom.Lateral			R.Shank.Bottom.Medial			R.Shank.Top.Lateral			R.Shank.Top.Medial			R.Thigh.Bottom.Lateral			R.Thigh.Bottom.Medial			R.Thigh.Top.Lateral			R.Thigh.Top.Medial		
		X1	Y1	Z1	X2	Y2	Z2	X3	Y3	Z3	X4	Y4	Z4	X5	Y5	Z5	X6	Y6	Z6	X7	Y7	Z7	X8	Y8	Z8	X9	Y9	Z9	X10	Y10	Z10	X11	Y11	Z11	X12	Y12	Z12	X13	Y13	Z13	X14	Y14	Z14	X15	Y15	Z15	X16	Y16	Z16	X17	Y17	Z17	X18	Y18	Z18	X19	Y19	Z19	X20	Y20	Z20	X21	Y21	Z21	X22	Y22	Z22	X23	Y23	Z23	X24	Y24	Z24	X25	Y25	Z25	X26	Y26	Z26	X27	Y27	Z27	X28	Y28	Z28	X29	Y29	Z29	X30	Y30	Z30	X31	Y31	Z31	X32	Y32	Z32	X33	Y33	Z33
																																																																																																				
1688	11.24666667	2361.604083	994.776974	914.9287368	2078.572806	39.09191174	1044.079024	2102.673515	55.17282632	1000.953499	2090.551585	85.56635033	1046.72708	2302.973063	1059.036657	885.2546093	2307.230371	46.98808105	1059.189742	2260.097519	46.7624737	959.0504804	2191.424735	1030.540603	989.693094	2205.873397	164.2553555	971.5009045	2166.077983	186.6340817	995.5372013	2234.039711	235.1857707	944.8829208	2195.592029	261.8193228	971.2872076	2319.866683	592.6298792	891.7300035	2274.406322	587.2784381	949.1590113	2281.835784	695.0340603	875.1956003	2241.713471	691.4596408	930.9871407	2357.686021	975.0120852	1126.446325	16567183.08	13552302.83	684658448.3	1922.612384	351.0888748	1105.320809	1951.43177	335.0323884	1149.800352	1970.057682	362.7658271	1103.465021	2304.67966	1047.986365	1159.671688	2025.126599	183.9988936	1183.55128	2040.729489	160.6090209	1076.759168	2194.716591	1024.199809	1064.393615	2093.030296	349.6825392	1156.856158	2077.591565	388.9129673	1122.522441	2163.023841	389.5591902	1168.804964	2147.48083	427.5526013	1133.601365	2388.180255	566.7238915	1175.476511	2337.078081	547.4643364	1125.610666	2336.901941	663.7946907	1187.620751	2286.491048	643.7748677	1142.893676
1689	11.25333333	2360.378289	995.0388901	914.9500041	2061.833985	40.31618521	1043.874101	2085.966484	56.21498716	1000.694482	2074.079245	86.75423255	1046.444534	2302.176018	1060.10102	885.5547102	2290.241513	46.76210065	1059.119288	2243.199033	46.71314103	959.0558683	2190.625503	1032.075916	990.0827933	2190.144631	165.0401968	971.1555758	2150.570656	187.8523795	995.2501705	2219.11649	235.64404	944.6151943	2180.904101	262.6785266	971.0067781	2310.656829	592.5961301	891.4072881	2264.996233	588.1257308	948.7850756	2274.843141	695.8932309	875.0854565	2234.867789	693.0560205	930.9789398	2356.892727	976.1889993	1126.350963	16627145.25	13601788.41	687155105.3	1934.754049	343.6863139	1106.638605	1964.416524	328.9328099	1151.018766	1981.741466	356.9391187	1104.312554	2303.602685	1049.258482	1159.806235	2043.182004	180.6768484	1185.411153	2058.714347	156.9139299	1078.615633	2193.926459	1025.786203	1064.780112	2105.67012	347.2639741	1157.576289	2089.258392	386.0653033	1123.2094	2174.705339	388.7707213	1169.342509	2158.273958	426.2981027	1134.011141	2396.05174	571.0990597	1175.859838	2345.104539	550.3368615	1126.481574	2342.31297	666.8430758	1188.12316	2292.062689	645.3187787	1143.901349
1690	11.26	2359.288792	995.7616951	914.803844	2045.105697	41.8860411	1043.702765	2069.287462	57.56123898	1000.472987	2057.675902	88.2712051	1046.194503	2301.726667	1061.675303	885.8146322	2273.217367	46.62104056	1059.089628	2226.275868	46.73470347	959.1142028	2190.037571	1034.16851	990.5093259	2174.253068	166.1902995	970.9903956	2134.872431	189.3294849	995.1753366	2203.886566	236.5296386	944.5725324	2165.853853	263.866214	970.980705	2300.874392	593.1486164	891.3865214	2255.047556	589.7177626	948.7373605	2267.49099	697.3554754	875.1904779	2227.677845	695.3661232	931.1897773	2356.471737	977.9687007	1126.074466	16687251.93	13651394.33	689657824.4	1947.104607	335.4342737	1107.767693	1977.566746	322.0276411	1152.051102	1993.553992	350.3571224	1105.042782	2303.004928	1051.148509	1159.844109	2061.67694	176.9161097	1186.951468	2077.356037	152.9595416	1080.177471	2193.429382	1027.968126	1065.203801	2118.31631	344.5211072	1158.142791	2100.818899	382.8115719	1123.73471	2186.226766	387.856609	1169.726055	2168.785342	424.8387175	1134.278794	2403.514024	576.0922597	1176.138785	2352.757642	553.9259426	1127.211863	2347.505971	670.546071	1188.519269	2297.466822	647.6207826	1144.740013
1691	11.26666667	2358.332167	996.9456758	914.4767427	2028.431598	43.90404747	1043.560026	2052.6918	59.28130183	1000.279637	2041.406153	90.2081094	1045.950192	2301.594272	1063.730309	886.031118	2256.183615	46.56574445	1059.08643	2209.361702	46.81883778	959.2175021	2189.660388	1036.791827	990.9920582	2158.289891	167.7684886	970.9781239	2119.081509	191.1340992	995.2865693	2188.456516	237.905777	944.7329662	2150.556865	265.4529866	971.1863884	2290.654844	594.321469	891.6673099	2244.702078	592.0685101	949.0117649	2259.888087	699.4297024	875.5133558	2220.238284	698.3848483	931.6117297	2356.422546	980.3295872	1125.609819	16747503.3	13701120.71	692166613	1959.710775	326.37627	1108.686107	1990.915155	314.3563039	1152.880878	2005.536874	343.050382	1105.641029	2302.913825	1053.62953	1159.791277	2080.592306	172.7776043	1188.157783	2096.62429	148.8203471	1081.426305	2193.225562	1030.716431	1065.679791	2130.974494	341.4544977	1158.550872	2112.288906	379.1549161	1124.102809	2197.592176	386.7890255	1169.954964	2179.023966	423.1504184	1134.41869	2410.537544	581.608003	1176.314153	2359.998033	558.1566912	1127.79752	2352.474579	674.8282776	1188.820045	2302.682233	650.627408	1145.418681
1692	11.27333333	2357.512395	998.5837378	913.9799257	2011.860839	46.46673119	1043.436031	2036.239201	61.4398607	1000.099776	2025.340156	92.64857837	1045.681754	2301.742725	1066.238046	886.2097339	2239.163241	46.58474457	1059.09388	2192.490948	46.95323011	959.3533323	2189.497325	1039.919823	991.5403836	2142.354224	169.8289991	971.071943	2103.305706	193.3297951	995.5405992	2172.941023	239.8260468	945.0514936	2135.141139	267.5011571	971.58126	2280.152177	596.1381344	892.2153463	2234.117584	595.1707128	949.5685632	2252.156049	702.1137774	876.0342745	2212.657842	702.0904846	932.2147782	2356.727868	983.2471587	1124.97246	16807899.54	13750967.72	694681478.5	1972.632844	316.5709254	1109.379436	2004.509182	305.970777	1153.496196	2017.744912	335.062498	1106.095424	2303.32623	1056.674806	1159.662238	2099.914185	168.3259455	1189.019849	2116.478721	144.5705336	1082.348177	2193.310288	1034.005627	1066.215135	2143.66181	338.0697955	1158.797678	2123.697377	375.1030629	1124.319342	2208.814989	385.5438445	1170.032962	2189.012925	421.2114847	1134.444656	2417.098572	587.5540218	1176.389042	2366.791195	562.9522948	1128.238212	2357.211081	679.6149063	1189.038381	2307.683732	654.2808516	1145.951068
1693	11.28	2356.842129	1000.658412	913.3487097	1995.448093	49.65858819	1043.31771	2019.991952	64.09357712	999.9162348	2009.551855	95.66328174	1045.3608	2302.137749	1069.169094	886.3630291	2222.176158	46.6571661	1059.095799	2175.69667	47.12389623	959.5058317	2189.555382	1043.52475	992.1511667	2126.548041	172.4123313	971.2125943	2087.656516	195.9689541	995.8838142	2157.456658	242.3295322	945.4671529	2119.739583	270.0589647	972.1101714	2269.526606	598.6079902	892.969214	2223.456625	598.996996	950.3413078	2244.419379	705.3928542	876.7149346	2205.0526	706.4465834	932.9533833	2357.355682	986.6922195	1124.19895	16868440.8	13800935.49	697202428.1	1985.939366	306.0900939	1109.841289	2018.406104	296.9336992	1153.890531	2030.241223	326.4486702	1106.397454	2304.207017	1060.2551	1159.478195	2119.631671	163.6249111	1189.532873	2136.869804	140.2786764	1082.935302	2193.674415	1037.810709	1066.806354	2156.403905	334.3773703	1158.882233	2135.0837	370.6672233	1124.389913	2219.914898	384.1012669	1169.967423	2198.786623	419.0026053	1134.368147	2423.177397	593.8427106	1176.369181	2373.105622	568.2344463	1128.538351	2361.703862	684.8330421	1189.188092	2312.441509	658.5193418	1146.353843
1694	11.28666667	2356.342119	1003.140576	912.6384088	1979.253912	53.54791099	1043.18955	2004.013744	67.2890496	999.7110194	1994.117751	99.30605266	1044.962929	2302.752211	1072.489958	886.5078446	2205.240196	46.75697203	1059.076516	2159.009468	47.31767829	959.6566452	2189.843585	1047.57481	992.8088187	2110.971792	175.5416869	971.33503	2072.244012	199.0878428	996.2583054	2142.116626	245.4373686	945.910236	2104.483219	273.1563354	972.7122855	2258.933347	601.7244475	893.8494514	2212.876067	603.5025042	951.2472225	2236.796472	709.2390904	877.5036942	2197.538934	711.4044919	933.7732432	2358.262419	990.6291087	1123.342788	16929127.28	13851024.18	699729469.3	1999.701382	295.0164934	1110.072316	2032.667471	287.3163454	1154.062696	2043.092365	317.2737699	1106.541784	2305.491579	1064.336161	1159.264356	2139.734185	158.7330119	1189.699133	2157.741821	136.0027945	1083.187859	2194.304646	1042.103425	1067.439284	2169.231612	330.3916541	1158.805492	2146.494631	365.8608557	1124.319021	2230.914854	382.4459962	1169.768299	2208.387591	416.5067943	1134.196786	2428.75688	600.3913662	1176.262747	2378.911359	573.9232563	1128.707807	2365.936137	690.4121077	1189.282741	2316.921763	663.2772443	1146.644899
1695	11.29333333	2356.038871	1005.990017	911.9174709	1963.344941	58.18441988	1043.033518	1988.368893	71.06174914	999.465782	1979.115827	103.6119389	1044.468199	2303.568812	1076.16117	886.6623453	2188.373245	46.85810238	1059.021544	2142.45734	47.52491793	959.7857448	2190.370411	1052.032079	993.4877743	2095.720948	179.2212013	971.374074	2057.172777	202.7033277	996.6066864	2127.026794	249.1509825	946.308922	2089.495606	276.8025493	973.3267398	2248.513678	605.4645528	894.7686242	2202.518585	608.628515	952.1977544	2229.392546	713.6126244	878.3411749	2190.226996	716.9060912	934.6174415	2359.396956	995.0144872	1122.46796	16989959.15	13901233.92	702262609.4	2013.986851	283.4411872	1110.078118	2047.35359	277.1966758	1154.016113	2056.363986	307.610202	1106.525548	2307.091965	1068.876981	1159.046793	2160.208641	153.6996072	1189.529504	2179.037023	131.786351	1083.115457	2195.183682	1046.848747	1068.091068	2182.177731	326.1302641	1158.57059	2157.981184	360.698516	1124.109473	2241.838509	380.5669659	1169.446971	2217.86328	413.7091968	1133.933538	2433.821538	607.1214482	1176.079677	2384.17905	579.9367825	1128.762155	2369.886219	696.2836057	1189.334189	2321.088314	668.4849299	1146.841896
